<svg xmlns="http://www.w3.org/2000/svg" xmlns:xlink="http://www.w3.org/1999/xlink" viewBox="0 0 1920 1080"><defs><style>.a{fill:none;}.b{isolation:isolate;}.c{fill:url(#a);}.d{fill:#a27943;}.e{fill:#053a1f;}.f{clip-path:url(#b);}.g{fill:#1d1d1b;}.h{fill:#1d1e1b;}.i{fill:#1c1f1c;}.j{fill:#1c201c;}.k{fill:#1b211d;}.l{fill:#1b221d;}.m{fill:#1b231d;}.n{fill:#1a241e;}.o{fill:#1a251e;}.p{fill:#19261e;}.q{fill:#19271f;}.r{fill:#19281f;}.s{fill:#182920;}.t{fill:#182a20;}.u{fill:#182b20;}.v{fill:#172c21;}.w{fill:#172d21;}.x{fill:#162e21;}.y{fill:#162f22;}.z{fill:#163022;}.aa{fill:#153123;}.ab{fill:#153223;}.ac{fill:#143323;}.ad{fill:#143424;}.ae{fill:#143524;}.af{fill:#133624;}.ag{fill:#133725;}.ah{fill:#123825;}.ai{fill:#123926;}.aj{fill:#123a26;}.ak{fill:#113b26;}.al{fill:#113c27;}.am{fill:#103d27;}.an{fill:#103e27;}.ao{fill:#103f28;}.ap{fill:#0f4028;}.aq{fill:#0f4129;}.ar{fill:#0f4229;}.as{fill:#0e4429;}.at{fill:#0e452a;}.au{fill:#0d462a;}.av{fill:#0d472b;}.aw{fill:#0d482b;}.ax{fill:#0c492b;}.ay{fill:#0c4a2c;}.az{fill:#0b4b2c;}.ba{fill:#0b4c2c;}.bb{fill:#0b4d2d;}.bc{fill:#0a4e2d;}.bd{fill:#0a4f2e;}.be{fill:#09502e;}.bf{fill:#09512e;}.bg{fill:#09522f;}.bh{fill:#08532f;}.bi{fill:#08542f;}.bj{fill:#075530;}.bk{fill:#075630;}.bl{fill:#075731;}.bm{fill:#065831;}.bn{fill:#065931;}.bo{fill:#055a32;}.bp{fill:#055b32;}.bq{fill:#055c32;}.br{fill:#045d33;}.bs{fill:#045e33;}.bt{fill:#045f34;}.bu{fill:#036034;}.bv{fill:#036134;}.bw{fill:#026235;}.bx{fill:#026335;}.by{fill:#026435;}.bz{fill:#016536;}.ca{fill:#016636;}.cb{fill:#006737;}.cc{fill:#006837;}.cd{fill:#0b5935;}.ce{fill:#020202;}.cf{fill:#896a45;}.cg,.cz{fill:#92184c;}.cg,.ch,.ci,.cj,.ck,.cl,.cm,.cn,.co,.cq,.cr,.ct,.cv,.cw,.cx,.cy,.da,.db,.dc,.dd,.de,.df,.dg,.dh,.di,.dj,.dk,.dl,.dm,.dn,.do,.dp,.dq,.dr,.ds,.dt,.du,.dv,.dw,.dx,.dy,.dz,.ea,.eb,.ec,.ed,.ee,.ef,.eg,.eh,.ej,.ek,.el,.eo,.ep,.eq,.er,.es,.et,.eu{fill-rule:evenodd;}.ch{fill:#e26d3b;}.ci{fill:#d84f2d;}.cj{fill:#ae354c;}.ck,.dy{fill:#ffae8d;}.ck{opacity:0.84;}.ck,.cl,.dy{mix-blend-mode:soft-light;}.cl{fill:#ffae6f;}.cm{fill:#a5294c;}.cn{fill:#892540;}.cn,.db,.eu{opacity:0.31;}.co{fill:#dec3ce;}.cp{fill:#c191a9;}.cq{fill:#f1d9e0;}.cr{fill:#290e29;}.cs{fill:#271333;}.ct{fill:#481a34;}.cu{fill:#330129;}.cv{fill:#6d354c;}.cw{fill:#b8808f;}.cx{fill:#ac234c;}.cy,.dc{fill:#82114c;}.da{fill:#560743;}.db{fill:#b62540;}.dc{opacity:0.78;}.dd{fill:#c2289a;}.de{fill:#ff8d16;}.df{fill:#9d7002;}.dg{fill:#b63d22;}.dh{fill:#fb3465;}.di{fill:#ff6d16;}.dj{fill:#ff2c22;}.dk{fill:#ff4822;}.dl{fill:#ff484c;}.dm{fill:#ff3945;}.dn{fill:#ffcc0c;}.do{fill:#641265;}.dp{fill:#c71265;}.dq{fill:#b61d47;}.dr{fill:#ff4365;}.ds{fill:#ff9022;}.dt{fill:#c56122;}.du{fill:#ff7a18;}.dv{fill:#881522;}.dw{fill:#ffca6a;}.dx{fill:#ffa754;}.dy{opacity:0.5;}.dz,.en{fill:#9d9a41;}.ea{fill:#ff706a;}.eb,.ei{fill:#ffcc6a;}.ec{fill:#5e4f22;}.ed{fill:#e02827;}.ee,.em{fill:#8836a9;}.ef{fill:#b32827;}.eg{fill:#b8cf41;}.eh{fill:#b17eff;}.ej{fill:#8b1a27;}.ek{fill:#4f1863;}.el{fill:#c77ab8;}.eo{fill:#631893;}.ep{fill:#9f1d4c;}.eq{fill:#ff954c;}.er{fill:#d1e011;}.es{fill:#a48000;}.et{fill:#635110;}.eu{fill:#4a4200;}</style><radialGradient id="a" cx="971.58" cy="383.62" r="1004.25" gradientUnits="userSpaceOnUse"><stop offset="0" stop-color="#fcee21"/><stop offset="1" stop-color="#ff9115"/></radialGradient><clipPath id="b"><path class="a" d="M1334,647.71H553V647c-.42-17.48-10-428.48,0-458.58l.16-.47h.49c31.21-.38,764.64-9.17,780.23.09l.33.2v.38c.37,17.59,9.07,431,0,458.58Zm-779.69-1.38H1333c8.67-31,.16-441.53-.17-457.21-23.15-8.72-755.5,0-778.67.24C544.63,222.27,553.87,627.12,554.31,646.33Z"/></clipPath></defs><g class="b"><rect class="c" x="-266.35" y="-312.5" width="2475.85" height="1392.23"/><path d="M2209-312V1079.23H-265.85V-312H2209m1-1H-266.85V1080.23H2210V-313Z"/><path class="d" d="M511.35,144.27s848.14-11.09,865.45,0c0,0,10.19,515.31,0,548.59H511.35S500.15,180.58,511.35,144.27Z"/><path d="M1377.31,693.55H510.67v-.67c-.46-20.92-11.08-512.82,0-548.81l.15-.48h.5c34.64-.45,848.55-11,865.84.11l.31.2v.37c.42,21,10.07,515.8,0,548.8ZM512,692.17h864.26c9.68-36.58.17-530.48-.16-547.47-24.65-10.48-839.48-.07-864.25.26C501.24,183.86,511.57,671,512,692.17Z"/><path class="e" d="M553.64,188.68s764.27-9.27,779.87,0c0,0,9.17,430.54,0,458.34H553.64S543.55,219,553.64,188.68Z"/><g class="f"><rect class="g" x="544.63" y="180.4" width="797.03" height="465.93"/><path class="g" d="M1267.22,415.79a322.87,322.87,0,0,1-94.85,229q-5.5,5.49-11.25,10.72v-7.8H725.61v7.8q-5.75-5.24-11.25-10.72a323.88,323.88,0,0,1,0-458q5.5-5.49,11.25-10.72v3h435.51v-3q5.75,5.24,11.25,10.72A322.88,322.88,0,0,1,1267.22,415.79Z"/><path class="h" d="M1262.9,415.79a318.5,318.5,0,0,1-93.59,225.94q-5.41,5.43-11.09,10.58v-4.6H728.52v4.6q-5.68-5.16-11.1-10.58a319.53,319.53,0,0,1,0-451.89q5.42-5.43,11.1-10.58,2.84-2.58,5.73-5.09V179h418.23v-4.85q2.89,2.51,5.74,5.09,5.67,5.16,11.09,10.58A318.51,318.51,0,0,1,1262.9,415.79Z"/><path class="i" d="M1258.59,415.79a314.25,314.25,0,0,1-92.33,222.89q-5.34,5.34-11,10.44v-1.41H731.42v1.41q-5.59-5.08-10.95-10.44a315.24,315.24,0,0,1,0-445.79q10.69-10.69,22.39-20.34V179h401v-6.47q11.67,9.63,22.38,20.34A314.25,314.25,0,0,1,1258.59,415.79Z"/><path class="j" d="M1254.27,415.79a310,310,0,0,1-91.06,219.84q-10.56,10.54-22.08,20.06v-8H745.6v8q-11.51-9.5-22.08-20.06a310.91,310.91,0,0,1,0-439.69q10.56-10.55,22.08-20.06V179h395.53v-3.14q11.52,9.5,22.08,20.06A310,310,0,0,1,1254.27,415.79Z"/><path class="k" d="M1250,415.79a305.61,305.61,0,0,1-89.8,216.78q-10.39,10.41-21.77,19.79v-4.65h-390v4.65Q737,643,726.58,632.57a306.57,306.57,0,0,1,0-433.57q10.39-10.41,21.77-19.79,5.68-4.68,11.58-9.1V179H1126.8v-8.91q5.9,4.41,11.58,9.1,11.36,9.38,21.77,19.79A305.62,305.62,0,0,1,1250,415.79Z"/><path class="l" d="M1245.63,415.79a301.32,301.32,0,0,1-88.53,213.73q-10.26,10.26-21.46,19.51v-1.32H751.1V649q-11.21-9.24-21.47-19.51a302.27,302.27,0,0,1,0-427.47q10.26-10.26,21.47-19.51,5.6-4.62,11.42-9V179h361.7v-5.45q5.82,4.35,11.42,9,11.19,9.24,21.46,19.51A301.33,301.33,0,0,1,1245.63,415.79Z"/><path class="m" d="M1241.31,415.79a297,297,0,0,1-87.26,210.68q-10.11,10.11-21.16,19.23-5.52,4.54-11.26,8.84v-6.83H765.1v6.83q-5.75-4.29-11.26-8.84-11-9.12-21.16-19.23a298,298,0,0,1,0-421.37q10.11-10.11,21.16-19.23,5.52-4.55,11.26-8.84v2h356.53v-2q5.74,4.29,11.26,8.84,11,9.12,21.16,19.23A297,297,0,0,1,1241.31,415.79Z"/><path class="n" d="M1237,415.79a292.68,292.68,0,0,1-86,207.62q-10,10-20.85,19-5.43,4.5-11.09,8.72v-3.37H767.68v3.37q-5.65-4.23-11.09-8.72-10.87-9-20.85-19A293.81,293.81,0,0,1,779.19,172.3V179h328.35V172.3A294,294,0,0,1,1237,415.79Z"/><path class="o" d="M1232.68,415.79a289.62,289.62,0,0,1-127.56,239.9v-8H781.61v8a289.46,289.46,0,0,1,0-479.81V179h323.51v-3.14a289.62,289.62,0,0,1,127.56,239.91Z"/><path class="p" d="M1228.36,415.79a284.14,284.14,0,0,1-83.47,201.52,287.51,287.51,0,0,1-42.18,34.8v-4.4H784v4.4a287.51,287.51,0,0,1-42.18-34.8,285,285,0,0,1,0-403A287.51,287.51,0,0,1,784,179.46q5.68-3.84,11.57-7.41v7h295.56v-7q5.86,3.57,11.56,7.41a287.51,287.51,0,0,1,42.18,34.8A284.15,284.15,0,0,1,1228.36,415.79Z"/><path class="q" d="M1224,415.79a281,281,0,0,1-123.75,232.74v-.82H786.44v.82a280.83,280.83,0,0,1,0-465.49q5.59-3.78,11.39-7.3V179h291.08v-3.28q5.77,3.52,11.38,7.3A281,281,0,0,1,1224,415.79Z"/><path class="r" d="M1219.72,415.79a275.49,275.49,0,0,1-80.94,195.41,278.37,278.37,0,0,1-40.9,33.75q-5.52,3.72-11.21,7.18v-4.42H800.06v4.42q-5.68-3.45-11.21-7.18A278.37,278.37,0,0,1,748,611.2a276.47,276.47,0,0,1,40.9-424.57q11-7.45,22.79-13.85V179h263.45v-6.24q11.76,6.39,22.79,13.85a276.59,276.59,0,0,1,121.84,229.16Z"/><path class="s" d="M1215.41,415.79a272.26,272.26,0,0,1-119.94,225.57Q1084.61,648.69,1073,655v-7.28H813.7V655q-11.57-6.29-22.43-13.63a272.12,272.12,0,0,1,0-451.15q10.85-7.34,22.43-13.63V179H1073v-2.44q11.57,6.28,22.43,13.63a272.26,272.26,0,0,1,119.94,225.58Z"/><path class="t" d="M1211.09,415.79a268,268,0,0,1-118,222Q1082.37,645,1071,651.19v-3.48H815.75v3.48q-11.37-6.18-22.07-13.41a267.85,267.85,0,0,1,0-444q10.68-7.22,22.07-13.41,5.7-3.09,11.55-5.92V179h232.13v-4.56c3.91,1.88,7.75,3.86,11.55,5.92q11.37,6.18,22.07,13.41a268,268,0,0,1,118,222Z"/><path class="u" d="M1206.77,415.79A263.66,263.66,0,0,1,1090.64,634.2q-10.52,7.11-21.72,13.2-5.6,3-11.36,5.81v-5.5H829.17v5.5q-5.76-2.78-11.36-5.81-11.19-6.09-21.72-13.2a263.55,263.55,0,0,1,44.75-461.12V179h205.05v-5.94a263.7,263.7,0,0,1,160.88,242.71Z"/><path class="v" d="M1202.45,415.79a259.34,259.34,0,0,1-158.24,238.72v-6.8H842.52v6.8a259.22,259.22,0,0,1,0-477.45v2h201.69v-2a259.34,259.34,0,0,1,158.24,238.73Z"/><path class="w" d="M1198.13,415.79a255.06,255.06,0,0,1-155.6,234.74v-2.82H844.2v2.82a254.91,254.91,0,0,1,0-469.49q11.43-4.83,23.41-8.57V179h151.52v-6.55q12,3.72,23.4,8.57a255.06,255.06,0,0,1,155.6,234.75Z"/><path class="x" d="M1193.82,415.79a250.73,250.73,0,0,1-153,230.76q-11.24,4.76-23,8.42v-7.26h-149V655q-11.76-3.65-23-8.42a250.49,250.49,0,0,1,47-476.13V179h101v-8.6a250.59,250.59,0,0,1,200,245.37Z"/><path class="y" d="M1189.5,415.79A246.07,246.07,0,0,1,993,656.92v-9.21H893.76v9.21A246.25,246.25,0,0,1,697.23,415.79c0-135.94,110.2-246.14,246.14-246.14S1189.5,279.85,1189.5,415.79Z"/><path class="z" d="M1185.18,415.79A241.69,241.69,0,0,1,992.1,652.69v-5H894.63v5a242,242,0,0,1-193.08-236.9C701.55,282.24,809.82,174,943.37,174S1185.18,282.24,1185.18,415.79Z"/><circle class="aa" cx="943.37" cy="415.79" r="237.49"/><circle class="ab" cx="943.37" cy="415.79" r="233.18"/><circle class="ac" cx="943.37" cy="415.79" r="228.86"/><circle class="ad" cx="943.37" cy="415.79" r="224.54"/><circle class="ae" cx="943.37" cy="415.79" r="220.22"/><circle class="af" cx="943.37" cy="415.79" r="215.9"/><circle class="ag" cx="943.37" cy="415.79" r="211.59"/><circle class="ah" cx="943.37" cy="415.79" r="207.27"/><circle class="ai" cx="943.37" cy="415.79" r="202.95"/><circle class="aj" cx="943.37" cy="415.79" r="198.63"/><circle class="ak" cx="943.37" cy="415.79" r="194.31"/><circle class="al" cx="943.37" cy="415.79" r="190"/><circle class="am" cx="943.37" cy="415.79" r="185.68"/><circle class="an" cx="943.37" cy="415.79" r="181.36"/><circle class="ao" cx="943.37" cy="415.79" r="177.04"/><circle class="ap" cx="943.37" cy="415.79" r="172.72"/><circle class="aq" cx="943.37" cy="415.79" r="168.41"/><circle class="ar" cx="943.37" cy="415.79" r="164.09"/><circle class="as" cx="943.37" cy="415.79" r="159.77"/><circle class="at" cx="943.37" cy="415.79" r="155.45"/><circle class="au" cx="943.37" cy="415.79" r="151.13"/><circle class="av" cx="943.37" cy="415.79" r="146.81"/><circle class="aw" cx="943.37" cy="415.79" r="142.5"/><circle class="ax" cx="943.37" cy="415.79" r="138.18"/><circle class="ay" cx="943.37" cy="415.79" r="133.86"/><circle class="az" cx="943.37" cy="415.79" r="129.54"/><circle class="ba" cx="943.37" cy="415.79" r="125.22"/><circle class="bb" cx="943.37" cy="415.79" r="120.91"/><circle class="bc" cx="943.37" cy="415.79" r="116.59"/><circle class="bd" cx="943.37" cy="415.79" r="112.27"/><circle class="be" cx="943.37" cy="415.79" r="107.95"/><circle class="bf" cx="943.37" cy="415.79" r="103.63"/><circle class="bg" cx="943.37" cy="415.79" r="99.32"/><circle class="bh" cx="943.37" cy="415.79" r="95"/><circle class="bi" cx="943.37" cy="415.79" r="90.68"/><circle class="bj" cx="943.37" cy="415.79" r="86.36"/><circle class="bk" cx="943.37" cy="415.79" r="82.04"/><circle class="bl" cx="943.37" cy="415.79" r="77.73"/><circle class="bm" cx="943.37" cy="415.79" r="73.41"/><circle class="bn" cx="943.37" cy="415.79" r="69.09"/><circle class="bo" cx="943.37" cy="415.79" r="64.77"/><circle class="bp" cx="943.37" cy="415.79" r="60.45"/><circle class="bq" cx="943.37" cy="415.79" r="56.14"/><circle class="br" cx="943.37" cy="415.79" r="51.82"/><circle class="bs" cx="943.37" cy="415.79" r="47.5"/><circle class="bt" cx="943.37" cy="415.79" r="43.18"/><circle class="bu" cx="943.37" cy="415.79" r="38.86"/><circle class="bv" cx="943.37" cy="415.79" r="34.54"/><circle class="bw" cx="943.37" cy="415.79" r="30.23"/><circle class="bx" cx="943.37" cy="415.79" r="25.91"/><circle class="by" cx="943.37" cy="415.79" r="21.59"/><circle class="bz" cx="943.37" cy="415.79" r="17.27"/><circle class="ca" cx="943.37" cy="415.79" r="12.95"/><circle class="cb" cx="943.37" cy="415.79" r="8.64"/><circle class="cc" cx="943.37" cy="415.79" r="4.32"/><rect class="g" x="542.97" y="178.82" width="800.3" height="468.89"/><path class="g" d="M1267.22,415.79a322.87,322.87,0,0,1-94.85,229q-5.5,5.49-11.25,10.72V649.1H725.61v6.41q-5.75-5.24-11.25-10.72a323.88,323.88,0,0,1,0-458q5.5-5.49,11.25-10.72v1.38h435.51v-1.38q5.75,5.24,11.25,10.72A322.88,322.88,0,0,1,1267.22,415.79Z"/><path class="h" d="M1262.9,415.79a318.5,318.5,0,0,1-93.59,225.94q-5.41,5.43-11.09,10.58V649.1H728.52v3.21q-5.68-5.16-11.1-10.58a319.53,319.53,0,0,1,0-451.89q10.85-10.84,22.69-20.63v8.23h406.51v-8.23q11.84,9.78,22.69,20.63A318.51,318.51,0,0,1,1262.9,415.79Z"/><path class="i" d="M1258.59,415.79a314.25,314.25,0,0,1-92.33,222.89q-5.34,5.34-11,10.44v0H731.42v0q-5.59-5.08-10.95-10.44a315.24,315.24,0,0,1,0-445.79q10.69-10.69,22.39-20.34v4.89h401v-4.89q11.67,9.63,22.38,20.34A314.25,314.25,0,0,1,1258.59,415.79Z"/><path class="j" d="M1254.27,415.79a310,310,0,0,1-91.06,219.84q-10.56,10.54-22.08,20.06V649.1H745.6v6.59q-11.51-9.5-22.08-20.06a310.91,310.91,0,0,1,0-439.69q10.56-10.55,22.08-20.06v1.56h395.53v-1.56q11.52,9.5,22.08,20.06A310,310,0,0,1,1254.27,415.79Z"/><path class="k" d="M1250,415.79a305.61,305.61,0,0,1-89.8,216.78q-10.39,10.41-21.77,19.79V649.1h-390v3.26Q737,643,726.58,632.57a306.57,306.57,0,0,1,0-433.57q10.39-10.41,21.77-19.79,5.68-4.68,11.58-9.1v7.33H1126.8v-7.33q5.9,4.41,11.58,9.1,11.36,9.38,21.77,19.79A305.62,305.62,0,0,1,1250,415.79Z"/><path class="l" d="M1245.63,415.79a301.32,301.32,0,0,1-88.53,213.73q-10.26,10.26-21.46,19.51-5.61,4.62-11.42,9v-8.9H762.52V658q-5.82-4.35-11.42-9-11.21-9.24-21.47-19.51a302.27,302.27,0,0,1,0-427.47q10.26-10.26,21.47-19.51,5.6-4.62,11.42-9v3.87h361.7v-3.87q5.82,4.35,11.42,9,11.19,9.24,21.46,19.51A301.33,301.33,0,0,1,1245.63,415.79Z"/><path class="m" d="M1241.31,415.79a297,297,0,0,1-87.26,210.68q-10.11,10.11-21.16,19.23-5.52,4.54-11.26,8.84V649.1H765.1v5.44q-5.75-4.29-11.26-8.84-11-9.12-21.16-19.23a298.08,298.08,0,0,1,44.1-457.75v8.72H1110v-8.72a298.19,298.19,0,0,1,131.36,247.07Z"/><path class="n" d="M1237,415.79a292.68,292.68,0,0,1-86,207.62q-10,10-20.85,19-5.43,4.5-11.09,8.72v-2H767.68v2q-5.65-4.23-11.09-8.72-10.87-9-20.85-19A293.81,293.81,0,0,1,779.19,172.3v5.14h328.35V172.3A294,294,0,0,1,1237,415.79Z"/><path class="o" d="M1232.68,415.79a289.62,289.62,0,0,1-127.56,239.9V649.1H781.61v6.59a289.46,289.46,0,0,1,0-479.81v1.56h323.51v-1.56a289.62,289.62,0,0,1,127.56,239.91Z"/><path class="p" d="M1228.36,415.79a284.14,284.14,0,0,1-83.47,201.52,287.51,287.51,0,0,1-42.18,34.8v-3H784v3a287.51,287.51,0,0,1-42.18-34.8,285,285,0,0,1,0-403A287.51,287.51,0,0,1,784,179.46q5.68-3.84,11.57-7.41v5.39h295.56v-5.39q5.86,3.57,11.56,7.41a287.51,287.51,0,0,1,42.18,34.8A284.15,284.15,0,0,1,1228.36,415.79Z"/><path class="q" d="M1224,415.79a281,281,0,0,1-123.75,232.74q-5.6,3.78-11.38,7.3V649.1H797.83v6.73q-5.79-3.52-11.39-7.3a280.83,280.83,0,0,1,0-465.49q11.19-7.56,23.14-14v8.45h267.57V169q11.94,6.48,23.14,14A281,281,0,0,1,1224,415.79Z"/><path class="r" d="M1219.72,415.79a275.49,275.49,0,0,1-80.94,195.41,278.37,278.37,0,0,1-40.9,33.75q-5.52,3.72-11.21,7.18v-3H800.06v3q-5.68-3.45-11.21-7.18A278.37,278.37,0,0,1,748,611.2a276.47,276.47,0,0,1,40.9-424.57q11-7.45,22.79-13.85v4.66h263.45v-4.66q11.76,6.39,22.79,13.85a276.59,276.59,0,0,1,121.84,229.16Z"/><path class="s" d="M1215.41,415.79a272.26,272.26,0,0,1-119.94,225.57Q1084.61,648.69,1073,655V649.1H813.7V655q-11.57-6.29-22.43-13.63a272.12,272.12,0,0,1,0-451.15q10.85-7.34,22.43-13.63v.86H1073v-.86q11.57,6.28,22.43,13.63a272.26,272.26,0,0,1,119.94,225.58Z"/><path class="t" d="M1211.09,415.79a268,268,0,0,1-118,222Q1082.37,645,1071,651.19V649.1H815.75v2.09q-11.37-6.18-22.07-13.41A267.88,267.88,0,0,1,839.16,169.1v8.34h208.42V169.1a268.07,268.07,0,0,1,163.51,246.69Z"/><path class="u" d="M1206.77,415.79a263.7,263.7,0,0,1-160.88,242.7V649.1H840.84v9.39a263.55,263.55,0,0,1,0-485.41v4.36h205.05v-4.36a263.7,263.7,0,0,1,160.88,242.71Z"/><path class="v" d="M1202.45,415.79a259.34,259.34,0,0,1-158.24,238.72V649.1H842.52v5.41a259.22,259.22,0,0,1,0-477.45v.38h201.69v-.38a259.34,259.34,0,0,1,158.24,238.73Z"/><path class="w" d="M1198.13,415.79a255.06,255.06,0,0,1-155.6,234.74V649.1H844.2v1.43a254.91,254.91,0,0,1,0-469.49q11.43-4.83,23.41-8.57v5h151.52v-5q12,3.72,23.4,8.57a255.06,255.06,0,0,1,155.6,234.75Z"/><path class="x" d="M1193.82,415.79a250.73,250.73,0,0,1-153,230.76q-11.24,4.76-23,8.42V649.1h-149V655q-11.76-3.65-23-8.42a250.49,250.49,0,0,1,47-476.13v7h101v-7a250.59,250.59,0,0,1,200,245.37Z"/><path class="y" d="M1189.5,415.79A246.07,246.07,0,0,1,993,656.92V649.1H893.76v7.82A246.25,246.25,0,0,1,697.23,415.79c0-135.94,110.2-246.14,246.14-246.14S1189.5,279.85,1189.5,415.79Z"/><circle class="z" cx="943.37" cy="415.79" r="241.81"/><circle class="aa" cx="943.37" cy="415.79" r="237.49"/><circle class="ab" cx="943.37" cy="415.79" r="233.18"/><circle class="ac" cx="943.37" cy="415.79" r="228.86"/><circle class="ad" cx="943.37" cy="415.79" r="224.54"/><circle class="ae" cx="943.37" cy="415.79" r="220.22"/><circle class="af" cx="943.37" cy="415.79" r="215.9"/><circle class="ag" cx="943.37" cy="415.79" r="211.59"/><circle class="ah" cx="943.37" cy="415.79" r="207.27"/><circle class="ai" cx="943.37" cy="415.79" r="202.95"/><circle class="aj" cx="943.37" cy="415.79" r="198.63"/><circle class="ak" cx="943.37" cy="415.79" r="194.31"/><circle class="al" cx="943.37" cy="415.79" r="190"/><circle class="am" cx="943.37" cy="415.79" r="185.68"/><circle class="an" cx="943.37" cy="415.79" r="181.36"/><circle class="ao" cx="943.37" cy="415.79" r="177.04"/><circle class="ap" cx="943.37" cy="415.79" r="172.72"/><circle class="aq" cx="943.37" cy="415.79" r="168.41"/><circle class="ar" cx="943.37" cy="415.79" r="164.09"/><circle class="as" cx="943.37" cy="415.79" r="159.77"/><circle class="at" cx="943.37" cy="415.79" r="155.45"/><circle class="au" cx="943.37" cy="415.79" r="151.13"/><circle class="av" cx="943.37" cy="415.79" r="146.81"/><circle class="aw" cx="943.37" cy="415.79" r="142.5"/><circle class="ax" cx="943.37" cy="415.79" r="138.18"/><circle class="ay" cx="943.37" cy="415.79" r="133.86"/><circle class="az" cx="943.37" cy="415.79" r="129.54"/><circle class="ba" cx="943.37" cy="415.79" r="125.22"/><circle class="bb" cx="943.37" cy="415.79" r="120.91"/><circle class="bc" cx="943.37" cy="415.79" r="116.59"/><circle class="bd" cx="943.37" cy="415.79" r="112.27"/><circle class="be" cx="943.37" cy="415.79" r="107.95"/><circle class="bf" cx="943.37" cy="415.79" r="103.63"/><circle class="bg" cx="943.37" cy="415.79" r="99.32"/><circle class="bh" cx="943.37" cy="415.79" r="95"/><circle class="bi" cx="943.37" cy="415.79" r="90.68"/><circle class="bj" cx="943.37" cy="415.79" r="86.36"/><circle class="bk" cx="943.37" cy="415.79" r="82.04"/><circle class="bl" cx="943.37" cy="415.79" r="77.73"/><circle class="bm" cx="943.37" cy="415.79" r="73.41"/><circle class="bn" cx="943.37" cy="415.79" r="69.09"/><circle class="bo" cx="943.37" cy="415.79" r="64.77"/><circle class="bp" cx="943.37" cy="415.79" r="60.45"/><circle class="bq" cx="943.37" cy="415.79" r="56.14"/><circle class="br" cx="943.37" cy="415.79" r="51.82"/><circle class="bs" cx="943.37" cy="415.79" r="47.5"/><circle class="bt" cx="943.37" cy="415.79" r="43.18"/><circle class="bu" cx="943.37" cy="415.79" r="38.86"/><circle class="bv" cx="943.37" cy="415.79" r="34.54"/><circle class="bw" cx="943.37" cy="415.79" r="30.23"/><circle class="bx" cx="943.37" cy="415.79" r="25.91"/><circle class="by" cx="943.37" cy="415.79" r="21.59"/><circle class="bz" cx="943.37" cy="415.79" r="17.27"/><circle class="ca" cx="943.37" cy="415.79" r="12.95"/><circle class="cb" cx="943.37" cy="415.79" r="8.64"/><circle class="cc" cx="943.37" cy="415.79" r="4.32"/></g><path class="cd" d="M564.64,198.3S533.51,342.93,567.76,628c0,0,367.38,21.85,751.37,0,0,0,41.52-148.79,0-429.73C1319.13,198.3,1080.44,166,564.64,198.3Z"/><path class="d" d="M476.52,707.94s-1,18.33,1,25.46c0,0,607.11,12.23,934.09,0,0,0,2-14.26-1-25.46C1410.61,707.94,484.67,700.81,476.52,707.94Z"/><path class="ce" d="M1025.05,739.49c-274.71,0-543.49-5.31-547.53-5.4H477l-.14-.49c-2-7.16-1.08-24.94-1-25.69v-.29l.22-.19c8.25-7.22,896.74-.46,934.56-.17h.52l.14.51c3.06,11.21,1.12,25.15,1,25.74l-.09.57-.57,0C1303.36,738.14,1163.45,739.49,1025.05,739.49Zm-547-6.77c20.85.41,613.69,11.91,933,0,.33-2.71,1.53-14.52-.94-24.12-316.75-2.43-915.69-5.59-932.89-.23C477.06,711.06,476.42,726.09,478.07,732.72Z"/><path class="cf" d="M476.52,707.94l32.59-15.28H1375l35.33,14.72a.29.29,0,0,1-.11.55C1369.29,707.62,476.52,701,476.52,707.94Z"/><path class="ce" d="M475.83,709v-1.37l.24-.28a1.12,1.12,0,0,1,.49-.22L509,692l866.27,0,35.32,14.72a1,1,0,0,1-.36,1.88h0c-37.25-.28-904.52-6.73-932.63-.4Zm250.44-4.92c252.66,0,614.92,2.62,681.84,3.12l-33.29-13.87H509.27l-28.22,13.23C503.83,704.73,601.75,704.1,726.27,704.1Z"/><polygon class="cg" points="926.4 1075.28 932.13 1075.28 934.4 1014.2 923.9 1014.2 926.4 1075.28"/><path class="ch" d="M951.21,1014.2h3.48s-5.13,46.44,13,45.23C967.71,1059.43,944.82,1068.62,951.21,1014.2Z"/><path class="ch" d="M907.2,1014.2h-3.47s5.29,46.44-12.86,45.23C890.87,1059.43,913.79,1068.62,907.2,1014.2Z"/><polygon class="ci" points="740.09 803.73 736.97 783.6 1126.21 779.02 1118.86 803.73 740.09 803.73"/><polygon class="cj" points="750.75 803.73 762.39 851.42 1093.24 851.42 1105.17 803.73 750.75 803.73"/><polygon class="cg" points="750.75 803.73 753.63 815.52 1103.44 809.47 1105.17 803.73 750.75 803.73"/><polygon class="ck" points="1011.38 803.73 1014.47 780.06 1075.35 779.02 1070.64 803.73 1011.38 803.73"/><polygon class="ck" points="1003.91 803.73 1008.83 780.11 993.26 780.26 990 803.73 1003.91 803.73"/><polygon class="cj" points="915.68 851.42 923.62 1035.14 935.16 1033.81 938.79 851.42 915.68 851.42"/><polygon class="cg" points="916.39 867.72 938.62 859.9 938.79 851.42 915.68 851.42 916.39 867.72"/><path class="cl" d="M952.65,1050.16l3.66-1.49a34.06,34.06,0,0,0,2,5l-3.11,1.22S953,1052.31,952.65,1050.16Z"/><path class="cl" d="M902.23,1048.67l3.65.52s-1.21,4.5-2.67,5.73l-3.42-.51A26,26,0,0,0,902.23,1048.67Z"/><path class="cm" d="M868,1059.64s28.57,2.53,35.17-4.72,3.88-40.72,3.88-40.72H923.9l2.5,61.08H868.93Z"/><path class="cm" d="M990.42,1059.64s-28.56,2.53-35.18-4.72-4-40.72-4-40.72H934.4l-2.28,61.08H989.6Z"/><polygon class="ch" points="988.57 1059.64 993.67 1059.64 992.02 1075.28 987.77 1075.28 988.57 1059.64"/><polygon class="ch" points="868.04 1059.64 862.95 1059.64 864.68 1075.28 868.93 1075.28 868.04 1059.64"/><polygon class="cn" points="1038.25 851.42 1052.44 810.35 1058.74 809.65 1045.7 851.42 1038.25 851.42"/><polygon class="cn" points="1063.37 851.42 1077.58 809.92 1080.62 809.92 1064.77 851.42 1063.37 851.42"/><polygon class="cn" points="873.54 851.42 865.2 813.59 850.61 813.59 856.33 851.42 873.54 851.42"/><polygon class="cn" points="850.05 851.42 843.91 813.59 841.07 814.01 846.8 851.42 850.05 851.42"/><polygon class="cn" points="775.18 851.42 774.29 815.52 781.41 815.04 782.31 851.42 775.18 851.42"/><polygon class="cn" points="799.59 803.73 796.29 782.9 812.42 782.71 814.21 803.73 799.59 803.73"/><polygon class="cn" points="1090.69 803.73 1096.82 779.37 1106.51 779.37 1098.64 803.73 1090.69 803.73"/><polygon class="ci" points="936.54 964.61 948.49 975.92 908.92 975.92 921.18 964.61 936.54 964.61"/><polygon class="cg" points="908.92 975.92 922.71 1014.2 935.55 1014.2 948.49 975.92 908.92 975.92"/><polygon class="ck" points="928.36 964.61 930.86 975.92 942.63 975.92 933.92 964.61 928.36 964.61"/><path class="co" d="M770.19,785.44l3.21-9.18s6.15-5,7.68-23.25h3.57v32.43Z"/><path class="co" d="M799.11,785.44l-3.22-9.18s-6.14-5-7.67-23.25h-3.57v32.43Z"/><path class="co" d="M777.42,752.05h14.46a6.24,6.24,0,0,1-3.55,2.17H781A5.69,5.69,0,0,1,777.42,752.05Z"/><path class="co" d="M790.86,746.38a6.21,6.21,0,1,1-6.21-6.21A6.21,6.21,0,0,1,790.86,746.38Z"/><rect class="cp" x="773.4" y="775.81" width="22.49" height="0.91"/><rect class="cp" x="780.97" y="753.77" width="7.36" height="0.91"/><path class="co" d="M790.86,785.44l3.21-9.18s6.14-5,7.68-23.25h3.57v32.43Z"/><path class="co" d="M819.77,785.44l-3.21-9.18s-6.14-5-7.67-23.25h-3.57v32.43Z"/><path class="co" d="M798.09,752.05h14.46a6.29,6.29,0,0,1-3.55,2.17h-7.37A5.68,5.68,0,0,1,798.09,752.05Z"/><path class="co" d="M811.53,746.38a6.21,6.21,0,1,1-6.21-6.21A6.21,6.21,0,0,1,811.53,746.38Z"/><rect class="cp" x="794.07" y="775.81" width="22.49" height="0.91"/><rect class="cp" x="801.64" y="753.77" width="7.36" height="0.91"/><path class="co" d="M811.53,785.44l3.21-9.18s6.14-5,7.67-23.25H826v32.43Z"/><path class="co" d="M840.44,785.44l-3.21-9.18s-6.14-5-7.68-23.25H826v32.43Z"/><path class="co" d="M818.76,752.05h14.45a6.24,6.24,0,0,1-3.54,2.17H822.3A5.68,5.68,0,0,1,818.76,752.05Z"/><path class="co" d="M832.19,746.38a6.21,6.21,0,1,1-6.21-6.21A6.21,6.21,0,0,1,832.19,746.38Z"/><rect class="cp" x="814.74" y="775.81" width="22.49" height="0.91"/><rect class="cp" x="822.3" y="753.77" width="7.36" height="0.91"/><path class="co" d="M832.19,785.44l3.22-9.18s6.14-5,7.67-23.25h3.57v32.43Z"/><path class="co" d="M861.11,785.44l-3.21-9.18s-6.14-5-7.68-23.25h-3.57v32.43Z"/><path class="co" d="M839.42,752.05h14.46a6.24,6.24,0,0,1-3.55,2.17H843A5.69,5.69,0,0,1,839.42,752.05Z"/><path class="co" d="M852.86,746.38a6.21,6.21,0,1,1-6.21-6.21A6.21,6.21,0,0,1,852.86,746.38Z"/><rect class="cp" x="835.41" y="775.81" width="22.49" height="0.91"/><rect class="cp" x="842.97" y="753.77" width="7.36" height="0.91"/><path class="co" d="M852.86,785.44l3.22-9.18s6.14-5,7.67-23.25h3.57v32.43Z"/><path class="co" d="M881.78,785.44l-3.22-9.18s-6.14-5-7.67-23.25h-3.57v32.43Z"/><path class="co" d="M860.09,752.05h14.46a6.24,6.24,0,0,1-3.55,2.17h-7.36A5.69,5.69,0,0,1,860.09,752.05Z"/><path class="co" d="M873.53,746.38a6.21,6.21,0,1,1-6.21-6.21A6.21,6.21,0,0,1,873.53,746.38Z"/><rect class="cp" x="856.08" y="775.81" width="22.49" height="0.91"/><rect class="cp" x="863.64" y="753.77" width="7.36" height="0.91"/><path class="co" d="M878.56,785.44l3.22-9.18s6.14-5,7.67-23.25H893v32.43Z"/><path class="co" d="M907.48,785.44l-3.22-9.18s-6.14-5-7.67-23.25H893v32.43Z"/><path class="co" d="M885.79,752.05h14.46a6.24,6.24,0,0,1-3.55,2.17h-7.36A5.69,5.69,0,0,1,885.79,752.05Z"/><path class="co" d="M899.23,746.38a6.21,6.21,0,1,1-6.21-6.21A6.21,6.21,0,0,1,899.23,746.38Z"/><rect class="cp" x="881.78" y="775.81" width="22.49" height="0.91"/><rect class="cp" x="889.34" y="753.77" width="7.36" height="0.91"/><path class="cq" d="M803,785.44l3-8.59s5.75-18.73,7.19-35.81h3.34v44.4Z"/><path class="cq" d="M830.1,785.44l-3-8.59s-5.75-18.73-7.19-35.81h-3.34v44.4Z"/><path class="cq" d="M809.79,740.15h13.54a5.84,5.84,0,0,1-3.32,2h-6.9A5.34,5.34,0,0,1,809.79,740.15Z"/><rect class="cp" x="806.03" y="776.39" width="21.06" height="0.91"/><rect class="cp" x="813.11" y="741.72" width="6.89" height="0.91"/><path class="cq" d="M812.41,740.15l-1.3-9.73s4.34-3.66,11.13-.62l-1.52,10.35Z"/><path class="cq" d="M822.3,785.44l3-8.59s5.75-18.73,7.19-35.81h3.34v44.4Z"/><path class="cq" d="M849.38,785.44l-3-8.59s-5.75-18.73-7.19-35.81h-3.34v44.4Z"/><path class="cq" d="M829.07,740.15h13.54a5.84,5.84,0,0,1-3.32,2h-6.9A5.34,5.34,0,0,1,829.07,740.15Z"/><rect class="cp" x="825.31" y="776.39" width="21.06" height="0.91"/><rect class="cp" x="832.39" y="741.72" width="6.9" height="0.91"/><path class="cq" d="M831.69,740.15l-.48-5.78s3.41-3.21,9.59,0l-.8,5.78Z"/><path class="cq" d="M843.59,785.44l3-8.59a123.7,123.7,0,0,0,7.19-31.53h3.34v40.12Z"/><path class="cq" d="M870.67,785.44l-3-8.59a123.7,123.7,0,0,1-7.19-31.53h-3.34v40.12Z"/><path class="cq" d="M850.36,744.43H863.9a5.84,5.84,0,0,1-3.32,2h-6.9A5.34,5.34,0,0,1,850.36,744.43Z"/><rect class="cp" x="846.6" y="776.39" width="21.06" height="0.91"/><rect class="cp" x="853.68" y="746" width="6.9" height="0.91"/><path class="cq" d="M853,744.43l-.48-5.78s3.41-3.21,9.59,0l-.8,5.78Z"/><path class="cq" d="M873.27,785.44l3-8.59s3.61-10.17,5.05-27.25h5.48v35.84Z"/><path class="cq" d="M900.35,785.44l-3-8.59s-3.61-10.17-5.05-27.25h-5.48v35.84Z"/><rect class="cp" x="876.28" y="776.39" width="21.06" height="0.91"/><rect class="cp" x="881.22" y="750.29" width="11.18" height="0.91"/><polygon class="cq" points="879.29 749.6 894.91 749.6 897.34 738.6 893.58 738.6 893.02 742.18 890.96 742.18 891.46 737.99 883.45 737.99 883.65 742.18 881.78 742.18 881.22 738.46 877.57 738.46 879.29 749.6"/><path class="cq" d="M784,785.44l3-8.59a123.7,123.7,0,0,0,7.19-31.53h3.34v40.12Z"/><path class="cq" d="M811.06,785.44l-3-8.59a123.7,123.7,0,0,1-7.19-31.53h-3.34v40.12Z"/><path class="cq" d="M790.75,744.43h13.54a5.84,5.84,0,0,1-3.32,2h-6.9A5.34,5.34,0,0,1,790.75,744.43Z"/><rect class="cp" x="786.99" y="776.39" width="21.06" height="0.91"/><rect class="cp" x="794.07" y="746" width="6.9" height="0.91"/><path class="cq" d="M793.37,744.43l-.48-5.78s3.41-3.21,9.59,0l-.8,5.78Z"/><path class="cr" d="M973.76,785.44l3-8.59S982.52,758.12,984,741h3.34v44.4Z"/><path class="cr" d="M1000.84,785.44l-3-8.59s-5.75-18.73-7.18-35.81H987.3v44.4Z"/><path class="cr" d="M980.53,740.15h13.54a5.84,5.84,0,0,1-3.32,2h-6.89A5.37,5.37,0,0,1,980.53,740.15Z"/><rect class="cs" x="976.77" y="776.39" width="21.06" height="0.91"/><rect class="cs" x="983.85" y="741.72" width="6.9" height="0.91"/><path class="cr" d="M983.16,740.15l-1.31-9.73s4.34-3.66,11.13-.62l-1.52,10.35Z"/><path class="cr" d="M993,785.44l3-8.59s5.75-18.73,7.19-35.81h3.34v44.4Z"/><path class="cr" d="M1020.12,785.44l-3-8.59s-5.75-18.73-7.18-35.81h-3.35v44.4Z"/><path class="cr" d="M999.81,740.15h13.54a5.84,5.84,0,0,1-3.32,2h-6.89A5.37,5.37,0,0,1,999.81,740.15Z"/><rect class="cs" x="996.05" y="776.39" width="21.06" height="0.91"/><rect class="cs" x="1003.13" y="741.72" width="6.9" height="0.91"/><path class="cr" d="M1002.44,740.15l-.49-5.78s3.41-3.21,9.6,0l-.81,5.78Z"/><path class="cr" d="M1014.33,785.44l3-8.59a123.7,123.7,0,0,0,7.19-31.53h3.34v40.12Z"/><path class="cr" d="M1041.41,785.44l-3-8.59a123.7,123.7,0,0,1-7.19-31.53h-3.34v40.12Z"/><path class="cr" d="M1021.1,744.43h13.54a5.84,5.84,0,0,1-3.32,2h-6.9A5.34,5.34,0,0,1,1021.1,744.43Z"/><rect class="cs" x="1017.34" y="776.39" width="21.06" height="0.91"/><rect class="cs" x="1024.42" y="746" width="6.89" height="0.91"/><path class="cr" d="M1023.73,744.43l-.49-5.78s3.41-3.21,9.6,0l-.81,5.78Z"/><path class="cr" d="M1044,785.44l3-8.59s3.61-10.17,5-27.25h5.48v35.84Z"/><path class="cr" d="M1071.09,785.44l-3-8.59s-3.61-10.17-5-27.25h-5.49v35.84Z"/><rect class="cs" x="1047.02" y="776.39" width="21.06" height="0.91"/><rect class="cs" x="1051.97" y="750.29" width="11.18" height="0.91"/><polygon class="cr" points="1050.04 749.6 1065.65 749.6 1068.08 738.6 1064.32 738.6 1063.76 742.18 1061.7 742.18 1062.2 737.99 1054.19 737.99 1054.4 742.18 1052.52 742.18 1051.96 738.46 1048.31 738.46 1050.04 749.6"/><path class="cr" d="M954.72,785.44l3-8.59a123.7,123.7,0,0,0,7.19-31.53h3.34v40.12Z"/><path class="cr" d="M981.8,785.44l-3-8.59a123.45,123.45,0,0,1-7.18-31.53h-3.35v40.12Z"/><path class="cr" d="M961.49,744.43H975a5.84,5.84,0,0,1-3.32,2h-6.89A5.37,5.37,0,0,1,961.49,744.43Z"/><rect class="cs" x="957.73" y="776.39" width="21.06" height="0.91"/><rect class="cs" x="964.82" y="746" width="6.89" height="0.91"/><path class="cr" d="M964.12,744.43l-.49-5.78s3.41-3.21,9.6,0l-.81,5.78Z"/><path class="ct" d="M940.93,785.44l3.22-9.18s6.14-5,7.67-23.25h3.57v32.43Z"/><path class="ct" d="M969.85,785.44l-3.22-9.18s-6.14-5-7.67-23.25h-3.57v32.43Z"/><path class="ct" d="M948.16,752.05h14.46a6.24,6.24,0,0,1-3.55,2.17h-7.36A5.69,5.69,0,0,1,948.16,752.05Z"/><path class="ct" d="M961.6,746.38a6.21,6.21,0,1,1-6.21-6.21A6.21,6.21,0,0,1,961.6,746.38Z"/><rect class="cu" x="944.15" y="775.81" width="22.49" height="0.91"/><rect class="cu" x="951.71" y="753.77" width="7.36" height="0.91"/><path class="ct" d="M961.6,785.44l3.21-9.18s6.15-5,7.68-23.25h3.57v32.43Z"/><path class="ct" d="M990.52,785.44l-3.22-9.18s-6.14-5-7.67-23.25h-3.57v32.43Z"/><path class="ct" d="M968.83,752.05h14.46a6.24,6.24,0,0,1-3.55,2.17h-7.36A5.69,5.69,0,0,1,968.83,752.05Z"/><path class="ct" d="M982.27,746.38a6.21,6.21,0,1,1-6.21-6.21A6.21,6.21,0,0,1,982.27,746.38Z"/><rect class="cu" x="964.82" y="775.81" width="22.49" height="0.91"/><rect class="cu" x="972.38" y="753.77" width="7.36" height="0.91"/><path class="ct" d="M982.27,785.44l3.21-9.18s6.14-5,7.68-23.25h3.57v32.43Z"/><path class="ct" d="M1011.18,785.44l-3.21-9.18s-6.14-5-7.67-23.25h-3.57v32.43Z"/><path class="ct" d="M989.5,752.05H1004a6.29,6.29,0,0,1-3.55,2.17H993A5.68,5.68,0,0,1,989.5,752.05Z"/><path class="ct" d="M1002.94,746.38a6.21,6.21,0,1,1-6.21-6.21A6.21,6.21,0,0,1,1002.94,746.38Z"/><rect class="cu" x="985.48" y="775.81" width="22.49" height="0.91"/><rect class="cu" x="993.04" y="753.77" width="7.36" height="0.91"/><path class="ct" d="M1002.94,785.44l3.21-9.18s6.14-5,7.67-23.25h3.57v32.43Z"/><path class="ct" d="M1031.85,785.44l-3.21-9.18s-6.14-5-7.68-23.25h-3.57v32.43Z"/><path class="ct" d="M1010.17,752.05h14.45a6.24,6.24,0,0,1-3.54,2.17h-7.37A5.68,5.68,0,0,1,1010.17,752.05Z"/><path class="ct" d="M1023.6,746.38a6.21,6.21,0,1,1-6.21-6.21A6.21,6.21,0,0,1,1023.6,746.38Z"/><rect class="cu" x="1006.15" y="775.81" width="22.49" height="0.91"/><rect class="cu" x="1013.71" y="753.77" width="7.36" height="0.91"/><path class="ct" d="M1023.6,785.44l3.22-9.18s6.14-5,7.67-23.25h3.57v32.43Z"/><path class="ct" d="M1052.52,785.44l-3.21-9.18s-6.14-5-7.68-23.25h-3.57v32.43Z"/><path class="ct" d="M1030.83,752.05h14.46a6.24,6.24,0,0,1-3.55,2.17h-7.36A5.69,5.69,0,0,1,1030.83,752.05Z"/><path class="ct" d="M1044.27,746.38a6.21,6.21,0,1,1-6.21-6.21A6.21,6.21,0,0,1,1044.27,746.38Z"/><rect class="cu" x="1026.82" y="775.81" width="22.49" height="0.91"/><rect class="cu" x="1034.38" y="753.77" width="7.36" height="0.91"/><path class="ct" d="M1049.31,785.44l3.21-9.18s6.14-5,7.67-23.25h3.57v32.43Z"/><path class="ct" d="M1078.22,785.44l-3.21-9.18s-6.14-5-7.68-23.25h-3.57v32.43Z"/><path class="ct" d="M1056.53,752.05H1071a6.24,6.24,0,0,1-3.55,2.17h-7.36A5.72,5.72,0,0,1,1056.53,752.05Z"/><path class="ct" d="M1070,746.38a6.21,6.21,0,1,1-6.21-6.21A6.21,6.21,0,0,1,1070,746.38Z"/><rect class="cu" x="1052.52" y="775.81" width="22.49" height="0.91"/><rect class="cu" x="1060.08" y="753.77" width="7.36" height="0.91"/><polygon class="cv" points="842.43 785.44 843.59 792.74 1086.88 792.74 1086.88 782.4 842.43 785.44"/><polygon class="ct" points="915.04 784.67 761.85 785.44 761.85 792.74 916.2 792.74 915.04 784.67"/><polygon class="cw" points="761.85 785.44 1086.88 782.4 842.43 785.44 761.85 785.44"/><polygon class="ci" points="296.4 1077.07 296.4 266.6 -141.18 219.5 -100.14 1077.07 296.4 1077.07"/><polygon class="cg" points="283.44 928.68 -92.11 928.68 -127.29 236.18 283.44 274.99 283.44 928.68"/><polygon class="cx" points="152.51 928.68 152.51 304.52 -125.27 275.9 -92.11 928.68 152.51 928.68"/><polygon class="cy" points="283.44 274.99 152.51 304.52 -125.27 275.9 -127.29 236.18 283.44 274.99"/><polygon class="ci" points="274.83 423.3 -121.94 388.71 -119.02 398.99 274.83 430.81 274.83 423.3"/><polygon class="ci" points="274.83 641.13 274.83 635.16 -108.39 608.3 -108.39 620.24 274.83 641.13"/><polygon class="ci" points="-99.87 775.88 274.83 787.47 274.83 794.27 -99.28 787.68 -99.87 775.88"/><polygon class="cy" points="274.83 430.81 152.51 438.27 -117.97 415.89 -119.02 398.99 274.83 430.81"/><polygon class="cy" points="274.83 641.13 152.51 641.13 -107.38 628.19 -108.39 620.24 274.83 641.13"/><polygon class="cy" points="274.83 794.27 152.51 794.27 -99.13 790.53 -99.28 787.68 274.83 794.27"/><path class="cz" d="M284.1,1065.9H-87.76l-6.74-130h.7l377.9,5.41Zm-370.62-1.31H282.79v-122l-375.9-5.38Z"/><rect class="cz" x="99.15" y="939.4" width="1.31" height="125.84"/><polygon class="cy" points="226.76 941.13 216.16 947.57 168.42 947.57 158.81 940.15 226.76 941.13"/><polygon class="da" points="213.3 940.15 203.6 947.57 168.42 947.57 158.81 940.15 213.3 940.15"/><polygon class="cy" points="34.83 938.8 24.23 945.25 -23.5 945.25 -33.11 937.83 34.83 938.8"/><polygon class="da" points="20.38 938.6 11.68 945.25 -23.5 945.25 -33.11 937.83 20.38 938.6"/><polygon class="db" points="283.44 941.94 264.26 1065.24 241.51 1065.24 266.24 941.69 283.44 941.94"/><polygon class="ck" points="264.26 941.66 238.78 1065.24 232.94 1065.24 262.64 941.69 264.26 941.66"/><polygon class="ck" points="-41.71 939.73 31.35 1065.24 13.62 1065.24 -48.42 939.84 -41.71 939.73"/><polygon class="db" points="158.81 940.15 158.81 1065.24 123.01 1065.24 136.97 939.84 158.81 940.15"/><polygon class="dc" points="270.25 273.74 152.51 344.63 -122.96 321.39 -127.29 236.18 270.25 273.74"/><polygon class="dc" points="274.83 430.81 152.51 487.03 -115.35 471.27 -119.02 398.99 274.83 430.81"/><polygon class="dc" points="274.83 641.13 152.51 676.7 -105.44 666.33 -108.39 620.24 274.83 641.13"/><polygon class="dc" points="274.83 794.27 152.51 826.58 -97.5 822.6 -99.28 787.68 274.83 794.27"/><polygon class="dd" points="47.26 619.13 24.16 617.51 24.16 513.12 47.26 514.74 47.26 619.13"/><polygon class="de" points="70.35 620.76 47.26 619.13 47.26 514.74 70.35 516.36 70.35 620.76"/><polygon class="de" points="159.98 627.05 144.81 625.99 144.81 512.12 159.98 513.19 159.98 627.05"/><polygon class="df" points="183.49 628.7 159.98 627.05 159.98 513.19 183.49 514.84 183.49 628.7"/><polygon class="dg" points="207 630.35 183.49 628.7 183.49 531.64 207 533.29 207 630.35"/><polygon class="dh" points="230.5 632 207 630.35 207 525.96 230.5 527.61 230.5 632"/><polygon class="dd" points="264.9 634.42 230.5 632 230.5 522.47 264.9 524.89 264.9 634.42"/><polygon class="dh" points="115.77 623.95 70.35 620.76 70.35 511.2 115.77 514.39 115.77 623.95"/><polygon class="di" points="144.81 625.99 115.77 623.95 115.77 519.55 144.81 521.59 144.81 625.99"/><polygon class="de" points="264.9 537.36 230.5 534.94 230.5 532.13 264.9 534.55 264.9 537.36"/><polygon class="de" points="47.26 535.16 24.16 533.54 24.16 530.73 47.26 532.35 47.26 535.16"/><polygon class="de" points="47.26 601.74 24.16 600.12 24.16 597.31 47.26 598.93 47.26 601.74"/><polygon class="de" points="115.77 530.29 70.35 527.1 70.35 524.28 115.77 527.48 115.77 530.29"/><polygon class="de" points="115.77 611.01 70.35 607.82 70.35 605.01 115.77 608.2 115.77 611.01"/><polygon class="dj" points="159.98 527.32 144.81 526.25 144.81 523.44 159.98 524.5 159.98 527.32"/><polygon class="dj" points="159.98 618.06 144.81 616.99 144.81 614.18 159.98 615.25 159.98 618.06"/><polygon class="de" points="264.9 621.48 230.5 619.07 230.5 616.25 264.9 618.67 264.9 621.48"/><polygon class="de" points="227.76 607.43 209.74 606.17 209.74 550.53 227.76 551.79 227.76 607.43"/><polygon class="dk" points="139.3 598.64 121.28 597.38 121.28 541.74 139.3 543 139.3 598.64"/><polygon class="dl" points="102.07 596.1 84.05 594.83 84.05 539.2 102.07 540.46 102.07 596.1"/><polygon class="dm" points="200.31 619.49 190.17 618.77 190.17 542.51 200.31 543.22 200.31 619.49"/><polygon class="dm" points="63.88 605.96 53.73 605.25 53.73 528.98 63.88 529.69 63.88 605.96"/><polygon class="dn" points="176.81 609.43 166.66 608.72 166.66 532.45 176.81 533.17 176.81 609.43"/><polygon class="do" points="24.16 513.12 -25.83 530.29 -25.83 614.08 24.16 617.51 24.16 513.12"/><polygon class="dp" points="144.81 512.12 125.3 520.22 144.81 521.59 144.81 512.12"/><polygon class="do" points="230.5 522.47 218.75 526.78 230.5 527.61 230.5 522.47"/><polygon class="dq" points="207 525.96 195.09 532.45 207 533.29 207 525.96"/><polygon class="dq" points="70.35 511.2 58.8 515.55 70.35 516.36 70.35 511.2"/><polygon class="dd" points="54.86 780.9 39.62 780.41 39.62 666.54 54.86 667.03 54.86 780.9"/><polygon class="df" points="78.47 781.66 54.86 780.9 54.86 667.03 78.47 667.79 78.47 781.66"/><polygon class="dg" points="102.08 782.42 78.47 781.66 78.47 684.6 102.08 685.36 102.08 782.42"/><polygon class="dd" points="125.68 783.18 102.08 782.42 102.08 678.02 125.68 678.78 125.68 783.18"/><polygon class="df" points="160.22 784.29 125.68 783.18 125.68 673.65 160.22 674.76 160.22 784.29"/><polygon class="dd" points="10.46 779.47 -35.15 778 -35.15 668.45 10.46 669.92 10.46 779.47"/><polygon class="df" points="39.62 780.41 10.46 779.47 10.46 675.08 39.62 676.02 39.62 780.41"/><polygon class="de" points="160.22 687.23 125.68 686.12 125.68 683.3 160.22 684.41 160.22 687.23"/><polygon class="de" points="10.46 685.81 -35.15 684.35 -35.15 681.53 10.46 683 10.46 685.81"/><polygon class="de" points="10.46 766.53 -35.15 765.07 -35.15 762.26 10.46 763.72 10.46 766.53"/><polygon class="dj" points="54.86 681.16 39.62 680.67 39.62 677.86 54.86 678.35 54.86 681.16"/><polygon class="dj" points="54.86 771.91 39.62 771.42 39.62 768.61 54.86 769.1 54.86 771.91"/><polygon class="de" points="160.22 771.35 125.68 770.24 125.68 767.43 160.22 768.54 160.22 771.35"/><polygon class="de" points="122.93 758.71 104.83 758.13 104.83 702.49 122.93 703.07 122.93 758.71"/><polygon class="dk" points="34.09 753.27 15.99 752.69 15.99 697.05 34.09 697.63 34.09 753.27"/><polygon class="dm" points="95.37 771.8 85.18 771.48 85.18 695.21 95.37 695.54 95.37 771.8"/><polygon class="dn" points="71.76 762.64 61.57 762.32 61.57 686.05 71.76 686.38 71.76 762.64"/><polygon class="do" points="39.62 666.54 20.04 675.39 39.62 676.02 39.62 666.54"/><polygon class="do" points="125.68 673.65 113.88 678.4 125.68 678.78 125.68 673.65"/><polygon class="do" points="102.08 678.02 90.11 684.97 102.08 685.36 102.08 678.02"/><polygon class="dr" points="72.63 405.53 94.84 407.41 92.31 303.78 69.8 301.69 72.63 405.53"/><polygon class="dg" points="31.12 402 72.63 405.53 69.8 301.69 27.72 297.79 31.12 402"/><polygon class="dg" points="-10.65 398.45 31.12 402 27.72 297.79 -14.62 293.86 -10.65 398.45"/><polygon class="ds" points="72.29 393.2 94.54 395.11 94.45 391.54 72.19 389.62 72.29 393.2"/><polygon class="ds" points="69.83 323.35 92.87 325.25 92.78 321.68 69.73 319.76 69.83 323.35"/><polygon class="ds" points="-11.12 386.04 30.72 389.63 30.57 385.24 -11.29 381.63 -11.12 386.04"/><polygon class="ds" points="-13.99 310.53 28.26 314.4 28.12 309.92 -14.16 306.04 -13.99 310.53"/><polygon class="dt" points="30.88 394.5 72.42 398.05 72.06 384.76 30.44 381.16 30.88 394.5"/><polygon class="dm" points="-0.88 370.2 19.34 371.96 17.73 324.37 -2.62 322.52 -0.88 370.2"/><polygon class="du" points="61.95 319.61 60.95 372.49 40.83 370.68 38.25 317.32 61.95 319.61"/><polygon class="dv" points="27.72 297.79 29.48 297.95 32.18 402.02 30.44 402.04 27.72 297.79"/><polygon class="dh" points="79.93 928.66 99.75 928.71 99.75 858.18 79.75 858.18 79.93 928.66"/><polygon class="de" points="42.89 928.59 79.93 928.66 79.67 824.55 42.13 824.13 42.89 928.59"/><polygon class="dd" points="5.62 928.51 42.89 928.59 42.13 824.13 4.36 823.72 5.62 928.51"/><polygon class="dh" points="-5.94 928.59 5.62 928.51 4.36 833.3 -7.36 833.29 -5.94 928.59"/><polygon class="ds" points="84.84 908.95 94.82 909.54 94.82 876.1 84.83 875.45 84.84 908.95"/><polygon class="ds" points="5.47 916.07 42.8 916.19 42.77 911.79 5.42 911.65 5.47 916.07"/><polygon class="dw" points="-27.82 917.41 5.47 917.21 5.32 905.86 -28.03 906.03 -27.82 917.41"/><polygon class="ds" points="4.56 840.42 42.25 840.78 42.22 836.29 4.5 835.92 4.56 840.42"/><polygon class="dx" points="42.84 921.07 79.91 921.17 79.88 907.84 42.74 907.69 42.84 921.07"/><polygon class="dx" points="42.29 845.35 79.72 845.69 79.69 832.1 42.19 831.71 42.29 845.35"/><polygon class="dm" points="14.98 899.3 33.02 899.38 32.61 851.68 14.46 851.52 14.98 899.3"/><polygon class="do" points="4.36 823.72 -17.57 833.28 4.36 833.3 4.36 823.72"/><polygon class="ci" points="1637.94 1080.07 1637.94 266.29 2077.3 219 2036.09 1080.07 1637.94 1080.07"/><polygon class="cg" points="1650.94 931.07 2028.03 931.07 2063.35 235.75 1650.94 274.71 1650.94 931.07"/><polygon class="cx" points="1782.41 931.07 1782.41 304.37 2061.32 275.63 2028.03 931.07 1782.41 931.07"/><polygon class="cy" points="1650.94 274.71 1782.41 304.37 2061.32 275.63 2063.35 235.75 1650.94 274.71"/><polygon class="ci" points="1659.6 423.63 2057.98 388.9 2055.05 399.22 1659.6 431.17 1659.6 423.63"/><polygon class="ci" points="1659.6 642.35 1659.6 636.36 2044.37 609.38 2044.37 621.38 1659.6 642.35"/><polygon class="ci" points="2035.82 777.65 1659.6 789.29 1659.6 796.11 2035.22 789.5 2035.82 777.65"/><polygon class="cy" points="1659.6 431.17 1782.41 438.66 2053.99 416.19 2055.05 399.22 1659.6 431.17"/><polygon class="cy" points="1659.6 642.35 1782.41 642.35 2043.36 629.36 2044.37 621.38 1659.6 642.35"/><polygon class="cy" points="1659.6 796.11 1782.41 796.11 2035.08 792.36 2035.22 789.5 1659.6 796.11"/><path class="cz" d="M2023.66,1068.85H1650.28V943.74h.65l379.49-5.44Zm-372.06-1.31h370.81L2029,939.63,1651.6,945Z"/><rect class="cz" x="1834.67" y="941.84" width="1.32" height="126.35"/><polygon class="cy" points="1707.86 943.57 1718.51 950.04 1766.43 950.04 1776.08 942.59 1707.86 943.57"/><polygon class="da" points="1721.38 942.59 1731.11 950.04 1766.43 950.04 1776.08 942.59 1721.38 942.59"/><polygon class="cy" points="1900.57 941.24 1911.21 947.71 1959.14 947.71 1968.79 940.26 1900.57 941.24"/><polygon class="da" points="1915.08 941.03 1923.82 947.71 1959.14 947.71 1968.79 940.26 1915.08 941.03"/><polygon class="db" points="1659.6 944.26 1681.06 1068.2 1693.04 1068.2 1668.21 944.14 1659.6 944.26"/><polygon class="db" points="1670.21 944.11 1715.51 1068.2 1721.38 1068.2 1671.83 944.14 1670.21 944.11"/><polygon class="ck" points="1857.15 940.26 1873.27 1068.2 1921.87 1068.2 1895.9 940.88 1857.15 940.26"/><polygon class="dy" points="1794.39 942.33 1807.7 1068.2 1812.03 1068.2 1798.01 942.28 1794.39 942.33"/><polygon class="dc" points="1650.94 274.71 1782.41 344.64 2059 321.31 2063.35 235.75 1650.94 274.71"/><polygon class="dc" points="1659.6 431.17 1782.41 487.62 2051.36 471.8 2055.05 399.22 1659.6 431.17"/><polygon class="dc" points="1659.6 642.35 1782.41 678.06 2041.41 667.66 2044.37 621.38 1659.6 642.35"/><polygon class="dc" points="1659.6 796.11 1782.41 828.56 2033.44 824.57 2035.22 789.5 1659.6 796.11"/><polygon class="dh" points="1723.32 418.02 1700.9 420.03 1700.9 315.67 1723.62 313.45 1723.32 418.02"/><polygon class="de" points="1765.2 414.26 1723.32 418.02 1723.62 313.45 1766.06 309.31 1765.2 414.26"/><polygon class="dd" points="1807.35 410.48 1765.2 414.26 1766.06 309.31 1808.78 305.14 1807.35 410.48"/><polygon class="dh" points="1820.42 409.42 1807.35 410.48 1808.78 314.77 1822.03 313.59 1820.42 409.42"/><polygon class="dh" points="1844.79 407.43 1820.42 409.42 1822.03 313.59 1846.73 311.4 1844.79 407.43"/><polygon class="dz" points="1869.26 404.93 1844.79 407.12 1846.73 301.44 1871.53 299.02 1869.26 404.93"/><polygon class="ds" points="1723.35 405.61 1700.9 407.65 1700.9 404.05 1723.36 402 1723.35 405.61"/><polygon class="ds" points="1807.52 397.98 1765.3 401.81 1765.34 397.39 1807.58 393.54 1807.52 397.98"/><polygon class="dw" points="1845.17 396.02 1807.52 399.12 1807.69 387.71 1845.4 384.57 1845.17 396.02"/><polygon class="ds" points="1808.55 321.93 1765.92 326.04 1765.96 321.53 1808.61 317.41 1808.55 321.93"/><polygon class="dx" points="1765.26 406.71 1723.34 410.5 1723.38 397.11 1765.37 393.27 1765.26 406.71"/><polygon class="dx" points="1765.89 330.63 1723.55 334.69 1723.59 321.04 1766 316.93 1765.89 330.63"/><polygon class="dm" points="1796.77 382.08 1776.37 383.96 1776.83 336.02 1797.36 334.06 1796.77 382.08"/><polygon class="ea" points="1836.79 381.34 1816.26 383.05 1817.19 325.16 1837.89 323.34 1836.79 381.34"/><polygon class="eb" points="1862.67 380.49 1852.36 381.44 1853.59 317.6 1863.98 316.59 1862.67 380.49"/><polygon class="ec" points="1871.53 299.02 1921.87 316.59 1917.55 401.15 1869.26 404.93 1871.53 299.02"/><polygon class="do" points="1808.78 305.14 1833.58 312.57 1808.78 314.77 1808.78 305.14"/><polygon class="dr" points="1851.49 623.14 1829.11 624.6 1831.66 520.6 1854.35 518.94 1851.49 623.14"/><polygon class="dg" points="1893.33 620.42 1851.49 623.14 1854.35 518.94 1896.75 515.85 1893.33 620.42"/><polygon class="dg" points="1935.42 617.68 1893.33 620.42 1896.75 515.85 1939.42 512.74 1935.42 617.68"/><polygon class="ds" points="1851.83 610.78 1829.41 612.25 1829.5 608.67 1851.93 607.18 1851.83 610.78"/><polygon class="ds" points="1854.31 540.68 1831.1 542.14 1831.18 538.55 1854.41 537.09 1854.31 540.68"/><polygon class="ds" points="1935.9 605.23 1893.73 608.01 1893.88 603.61 1936.07 600.81 1935.9 605.23"/><polygon class="ds" points="1938.78 529.47 1896.2 532.52 1896.35 528.03 1938.96 524.96 1938.78 529.47"/><polygon class="dt" points="1893.57 612.9 1851.7 615.64 1852.07 602.3 1894.01 599.51 1893.57 612.9"/><polygon class="dm" points="1925.57 589.12 1905.2 590.5 1906.83 542.74 1927.33 541.28 1925.57 589.12"/><polygon class="dx" points="1862.25 537.09 1863.27 590.2 1883.54 588.78 1886.14 535.26 1862.25 537.09"/><polygon class="dv" points="1896.75 515.85 1894.98 515.98 1892.26 620.42 1894.01 620.47 1896.75 515.85"/><polygon class="ed" points="1786.48 722.39 1678.47 725.53 1678.47 711.37 1786.48 708.23 1786.48 722.39"/><polygon class="ee" points="1792.87 762.6 1678.47 765.92 1678.47 751.77 1792.87 748.44 1792.87 762.6"/><polygon class="dz" points="1790.67 785.25 1678.47 788.52 1678.47 765.92 1790.67 762.66 1790.67 785.25"/><polygon class="ef" points="1786.48 748.62 1678.47 751.77 1678.47 725.53 1786.48 722.39 1786.48 748.62"/><polygon class="ds" points="1697.12 744.35 1697.12 729.78 1769.91 726.2 1769.91 742.23 1697.12 744.35"/><polygon class="ds" points="1690.94 765.56 1690.94 751.4 1692.82 751.35 1693.45 765.49 1690.94 765.56"/><polygon class="eg" points="1688.77 788.22 1688.77 765.63 1695.62 765.43 1695.62 788.02 1688.77 788.22"/><polygon class="ds" points="1781.65 762.92 1781.65 748.76 1784.38 748.68 1783.24 762.88 1781.65 762.92"/><polygon class="dm" points="1756.48 723.26 1755.85 709.12 1767.49 708.78 1766.86 722.96 1756.48 723.26"/><polygon class="dm" points="1695.44 725.04 1695.44 710.88 1706.25 710.56 1706.88 724.7 1695.44 725.04"/><polygon class="eh" points="1709.92 760.33 1709.92 755.54 1767.49 753.86 1767.49 758.65 1709.92 760.33"/><path class="ei" d="M1706.55,784.65V768.16h.32l57.92-1.68V783h-.32Zm.66-15.85V784l56.92-1.66V767.15Z"/><polygon class="ej" points="1786.48 708.23 1847.71 717.8 1846.64 748.44 1786.48 748.62 1786.48 708.23"/><polygon class="ek" points="1792.87 748.44 1854.46 748.68 1854.46 762.92 1792.87 762.6 1792.87 748.44"/><polygon class="ec" points="1847.71 783.47 1849.55 762.66 1790.67 762.66 1790.67 785.25 1847.71 783.47"/><polygon class="el" points="1847.41 726.43 1788.31 721.06 1788.31 710.83 1847.71 719.4 1847.41 726.43"/><polygon class="el" points="1847.3 729.47 1788.31 724.22 1788.98 746.52 1846.71 746.52 1847.3 729.47"/><polygon class="el" points="1854.46 751.77 1796.88 751.18 1796.88 761.08 1854.46 760.33 1854.46 751.77"/><polygon class="el" points="1849.26 765.92 1792.87 765.43 1792.87 781.76 1847.84 782 1849.26 765.92"/><polygon class="ee" points="1955.67 868.21 1847.71 868.09 1847.71 846.02 1955.67 846.14 1955.67 868.21"/><rect class="em" x="1847.71" y="894.29" width="114.36" height="14.16"/><rect class="en" x="1847.71" y="908.48" width="112.16" height="22.59"/><polygon class="ef" points="1955.67 894.44 1847.71 894.32 1847.71 868.09 1955.67 868.21 1955.67 894.44"/><polygon class="ds" points="1862.69 888.55 1862.69 873.98 1882.58 874.11 1882.58 887.97 1862.69 888.55"/><polygon class="ds" points="1860.17 908.48 1860.17 894.32 1862.06 894.26 1862.69 908.48 1860.17 908.48"/><polygon class="eh" points="1879.16 902.88 1879.16 898.09 1936.73 899.65 1936.73 902.39 1879.16 902.88"/><path class="ei" d="M1934,927.19h-58.24V910.71h.33l57.91.21Zm-57.58-.66h56.92V911.58l-56.92-.21Z"/><polygon class="eh" points="1874.52 864.52 1873.93 849.71 1929.85 849.71 1929.85 864.52 1874.52 864.52"/><polygon class="eo" points="1860.17 868.09 1860.17 846.14 1866.36 846.02 1866.36 868.09 1860.17 868.09"/><polygon class="cg" points="1257.54 977.27 1253.34 1074.88 1245.99 1074.88 1242.96 977.27 1257.54 977.27"/><polygon class="ci" points="1099.56 935.13 1269.75 942.29 1269.75 959.06 1103.14 958.23 1099.56 935.13"/><polygon class="ep" points="1269.75 942.29 1391.44 939.3 1386.07 959.06 1269.75 959.06 1269.75 942.29"/><polygon class="cj" points="1113.06 958.27 1116.17 977.27 1370.08 977.27 1373.7 959.06 1113.06 958.27"/><polygon class="cg" points="1113.56 961.3 1264.76 961.3 1264.76 977.27 1370.08 977.27 1373.7 959.06 1113.06 958.27 1113.56 961.3"/><polygon class="cj" points="1116.17 977.27 1128.34 1078.45 1134.66 1078.45 1131.09 977.27 1116.17 977.27"/><polygon class="cj" points="1264.76 977.27 1256.17 1078.45 1250.74 1078.45 1252.55 977.27 1264.76 977.27"/><polygon class="cg" points="1370.08 977.27 1353.36 1078.45 1346.01 1078.45 1355.5 977.27 1370.08 977.27"/><polygon class="cg" points="1127.41 977.27 1134.66 977.27 1136.36 1078.45 1134.66 1078.45 1127.41 977.27"/><polygon class="cg" points="1264.76 977.27 1269.75 977.27 1257.75 1078.45 1256.17 1078.45 1264.76 977.27"/><polygon class="eq" points="1099.56 935.13 1281.26 935.13 1391.44 939.3 1269.75 942.29 1099.56 935.13"/><polygon class="cg" points="1256.03 702.85 1268.53 706.13 1431.8 691.9 1422.6 689.31 1256.03 702.85"/><polygon class="cg" points="1373.05 938.66 1425.8 692.42 1419.47 653.34 1367.62 938.72 1373.05 938.66"/><polygon class="ci" points="1367.62 938.72 1347.96 937.76 1389.37 693.38 1412.37 692.42 1367.62 938.72"/><polygon class="cg" points="1262.55 935.62 1294.91 668.11 1286.94 665.38 1257.31 935.33 1262.55 935.62"/><polygon class="ci" points="1257.31 935.33 1241.95 935.37 1264.88 703.5 1282.77 703.36 1257.31 935.33"/><polygon class="ci" points="1256.03 702.85 1260.52 662.6 1432.25 646.27 1422.6 689.31 1256.03 702.85"/><polygon class="cg" points="1432.25 646.27 1443 652.61 1431.8 691.9 1422.6 689.31 1432.25 646.27"/><polygon class="cj" points="1302.37 936.13 1328.6 698.23 1337.53 698 1307.2 936.3 1302.37 936.13"/><polygon class="cg" points="1337.53 698 1341.17 699.8 1308.99 936.37 1307.2 936.3 1337.53 698"/><polygon class="cj" points="1347.96 937.76 1322.34 826.38 1323.57 816.73 1351.49 916.93 1347.96 937.76"/><polygon class="cj" points="1285.51 704.1 1316.78 805.46 1315.43 817.65 1282.95 720.25 1285.51 704.1"/><polygon class="cj" points="1389.37 693.38 1325.33 805.33 1323.57 816.73 1385.77 714.6 1389.37 693.38"/><polygon class="cj" points="1257.87 935.36 1259.03 927.23 1315.43 817.65 1314.21 828.75 1262.55 935.62 1257.87 935.36"/><polygon class="cg" points="1385.77 714.6 1384.02 724.94 1328.36 814.93 1353.07 907.61 1351.49 916.93 1323.57 816.73 1385.77 714.6"/><polygon class="cg" points="1285.51 704.1 1288 704.43 1317.49 798.99 1316.78 805.46 1285.51 704.1"/><polygon class="cg" points="1262.55 935.62 1265.86 935.36 1313.34 836.64 1314.21 828.75 1262.55 935.62"/><polygon class="ck" points="1292.35 699.19 1300.89 658.76 1360.85 653.06 1350.08 694.43 1292.35 699.19"/><polygon class="ck" points="1358.83 694.49 1375.69 651.65 1390.23 650.27 1364.18 694.06 1358.83 694.49"/><polygon class="cn" points="1366.85 826.26 1392.61 801.47 1386.22 836.38 1362.08 854.43 1366.85 826.26"/><polygon class="cn" points="1367.56 822.12 1395.46 785.49 1396.57 779.39 1368.28 817.84 1367.56 822.12"/><polygon class="cn" points="1247.33 880.99 1264.77 867.36 1266.46 852 1248.75 866.64 1247.33 880.99"/><polygon class="ck" points="1139.77 958.27 1136.36 936.68 1166.44 937.69 1164.4 958.51 1139.77 958.27"/><polygon class="cn" points="1210.96 977.27 1214.13 961.3 1223.39 961.3 1215.48 977.27 1210.96 977.27"/><polygon class="cn" points="1192.8 958.51 1194.92 939.3 1202.63 939.46 1197.72 958.27 1192.8 958.51"/><path class="er" d="M1389.37,922.85s-86.72-14.27-153.95-13.33-139.59,4.6-139.59,4.6S1179.58,936,1224.4,935,1389.37,922.85,1389.37,922.85Z"/><path class="es" d="M1109.92,935.13s-14.69-14.15-14.09-21c0,0,92.7,18.51,172.54,10.5l-5.14,14.13Z"/><path class="et" d="M1378.7,938.65l10.67-15.8s-80.7-8.86-121,1.77l-5.14,14.13Z"/><path class="eu" d="M1248,938.39V926.11s47-13.2,112.9-7.4l-27.76-3.38s-85.82-2.37-114.23,11.11l2.19,11.32Z"/><path class="eu" d="M1191.94,937.07l-5-11.69s60.58-12.61,128.42-11.89l-9.23-.85s-94.91-4.28-137.93,11.32l7.61,12Z"/><path class="eu" d="M1140.63,935.85l-7.55-15.8s92-13,156.8-8.7l-16.09-1s-111.94-2.89-163.88,6.25l12.23,18.44Z"/><polygon class="ep" points="1109.92 935.13 1263.22 940.61 1378.7 938.65 1263.23 938.75 1109.92 935.13"/><polygon class="cg" points="608.28 976.27 612.48 1073.88 619.83 1073.88 622.86 976.27 608.28 976.27"/><polygon class="ci" points="766.25 934.13 596.07 941.29 596.07 958.06 762.68 957.23 766.25 934.13"/><polygon class="ep" points="596.07 941.29 474.38 938.3 479.74 958.06 596.07 958.06 596.07 941.29"/><polygon class="cj" points="752.75 957.27 749.65 976.27 495.73 976.27 492.12 958.06 752.75 957.27"/><polygon class="cg" points="752.26 960.3 601.06 960.3 601.06 976.27 495.73 976.27 492.12 958.06 752.75 957.27 752.26 960.3"/><polygon class="cj" points="749.65 976.27 737.48 1077.45 731.15 1077.45 734.73 976.27 749.65 976.27"/><polygon class="cj" points="601.06 976.27 609.65 1077.45 615.07 1077.45 613.26 976.27 601.06 976.27"/><polygon class="cg" points="495.73 976.27 512.46 1077.45 519.8 1077.45 510.31 976.27 495.73 976.27"/><polygon class="cg" points="738.4 976.27 731.15 976.27 729.46 1077.45 731.15 1077.45 738.4 976.27"/><polygon class="cg" points="601.06 976.27 596.07 976.27 608.07 1077.45 609.65 1077.45 601.06 976.27"/><polygon class="eq" points="766.25 934.13 584.56 934.13 474.38 938.3 596.07 941.29 766.25 934.13"/><polygon class="cg" points="609.78 701.85 597.29 705.13 434.02 690.9 443.22 688.31 609.78 701.85"/><polygon class="cg" points="492.77 937.66 440.02 691.42 446.35 652.34 498.19 937.72 492.77 937.66"/><polygon class="ci" points="498.19 937.72 517.86 936.76 476.45 692.38 453.45 691.42 498.19 937.72"/><polygon class="cg" points="603.27 934.62 570.91 667.11 578.88 664.38 608.51 934.33 603.27 934.62"/><polygon class="ci" points="608.51 934.33 623.86 934.37 600.94 702.5 583.04 702.36 608.51 934.33"/><polygon class="ci" points="609.78 701.85 605.29 661.6 433.56 645.27 443.22 688.31 609.78 701.85"/><polygon class="cg" points="433.56 645.27 422.82 651.61 434.02 690.9 443.22 688.31 433.56 645.27"/><polygon class="cj" points="563.45 935.13 537.21 697.23 528.29 697 558.62 935.3 563.45 935.13"/><polygon class="cg" points="528.29 697 524.65 698.8 556.82 935.37 558.62 935.3 528.29 697"/><polygon class="cj" points="517.86 936.76 543.48 825.38 542.25 815.73 514.33 915.93 517.86 936.76"/><polygon class="cj" points="580.31 703.1 549.04 804.46 550.38 816.65 582.87 719.25 580.31 703.1"/><polygon class="cj" points="476.45 692.38 540.48 804.33 542.25 815.73 480.04 713.6 476.45 692.38"/><polygon class="cj" points="607.95 934.36 606.79 926.23 550.38 816.65 551.61 827.75 603.27 934.62 607.95 934.36"/><polygon class="cg" points="480.04 713.6 481.8 723.94 537.45 813.93 512.75 906.61 514.33 915.93 542.25 815.73 480.04 713.6"/><polygon class="cg" points="580.31 703.1 577.82 703.43 548.33 797.99 549.04 804.46 580.31 703.1"/><polygon class="cg" points="603.27 934.62 599.96 934.36 552.48 835.64 551.61 827.75 603.27 934.62"/><polygon class="ck" points="573.47 698.19 564.92 657.76 504.96 652.06 515.74 693.43 573.47 698.19"/><polygon class="ck" points="506.99 693.49 490.13 650.65 475.59 649.27 501.63 693.06 506.99 693.49"/><polygon class="cn" points="498.96 825.26 473.21 800.47 479.6 835.38 503.74 853.43 498.96 825.26"/><polygon class="cn" points="498.26 821.12 470.36 784.49 469.25 778.39 497.54 816.84 498.26 821.12"/><polygon class="cn" points="618.49 879.99 601.05 866.36 599.36 851 617.07 865.64 618.49 879.99"/><polygon class="ck" points="726.05 957.27 729.46 935.68 699.38 936.69 701.41 957.51 726.05 957.27"/><polygon class="cn" points="654.85 976.27 651.69 960.3 642.42 960.3 650.33 976.27 654.85 976.27"/><polygon class="cn" points="673.01 957.51 670.9 938.3 663.18 938.46 668.1 957.27 673.01 957.51"/><path class="er" d="M476.45,921.85s86.71-14.27,153.94-13.33S770,913.12,770,913.12,686.23,935,641.41,934,476.45,921.85,476.45,921.85Z"/><path class="es" d="M755.89,934.13s14.69-14.15,14.09-21c0,0-92.7,18.51-172.53,10.5l5.14,14.13Z"/><path class="et" d="M487.12,937.65l-10.67-15.8s80.7-8.86,121,1.77l5.14,14.13Z"/><path class="eu" d="M617.85,937.39V925.11s-47-13.2-112.9-7.4l27.75-3.38s85.82-2.37,114.23,11.11l-2.18,11.32Z"/><path class="eu" d="M673.88,936.07l5-11.69s-60.58-12.61-128.42-11.89l9.22-.85s94.91-4.28,137.93,11.32l-7.6,12Z"/><path class="eu" d="M725.19,934.85l7.55-15.8s-92-13-156.8-8.7l16.08-1S704,906.47,755.9,915.61l-12.23,18.44Z"/><polygon class="ep" points="755.89 934.13 602.6 939.61 487.12 937.65 602.59 937.75 755.89 934.13"/></g></svg>